<?xml version="1.0" encoding="utf-8"?>
<!-- Generator: Adobe Illustrator 25.4.1, SVG Export Plug-In . SVG Version: 6.00 Build 0)  -->
<svg version="1.1" id="Layer_1" xmlns="http://www.w3.org/2000/svg" xmlns:xlink="http://www.w3.org/1999/xlink" x="0px" y="0px"
	 viewBox="0 0 774.7 172.1" style="enable-background:new 0 0 774.7 172.1;" xml:space="preserve">
<style type="text/css">
	.st0{fill:#084B83;}
	.st1{fill:#BBE6E4;}
	.st2{fill:#42BFDD;}
	.st3{fill:#FF66B3;}
</style>
<g id="Layer_1_00000043454296755202186120000012905540973069488812_">
	<path class="st0" d="M0,124.8l21.3-4.2c2.2,8.9,6.9,14.1,16.6,14.1c7.4,0,11.1-2.7,11.2-7.5c0-4.4-3-6.9-17.3-9.7
		C9.6,112.7,2,105.2,2,92.1C2,77,12.9,67.6,35.2,67.6c22.8,0,32.2,9.4,35.2,24.2l-21.8,4.9C46.8,88.1,43,84,35.1,84
		c-6.7,0-10.4,2.7-10.4,7.1s2,7.4,17.6,10.2c22.8,4.6,29.3,13.1,29.3,25c0,15.6-10.4,25.3-34.2,25.3C10.6,151.6,2.4,139.4,0,124.8z"
		/>
	<path class="st0" d="M191.4,111.2c0-27.5,15.3-43.6,41.1-43.6c24.5,0,36.4,15.6,36.4,37.3c0,3.5,0,6.2-0.3,10.6h-54.4
		c1.5,11.5,7.5,16.5,18.3,16.5c10.6,0,14.1-5.2,15.9-11.4l19.8,5.5c-3.9,14.4-14.3,25.5-36.1,25.5
		C208.2,151.5,191.4,137.7,191.4,111.2z M214.4,102.5H248c-0.7-10.6-5.9-15.9-16.1-15.9C221.8,86.5,215.9,91.2,214.4,102.5
		L214.4,102.5z"/>
	<path class="st0" d="M272,111.2c0-27.5,15.3-43.6,41.1-43.6c24.5,0,36.4,15.6,36.4,37.3c0,3.5,0,6.2-0.3,10.6h-54.4
		c1.5,11.5,7.5,16.5,18.3,16.5c10.6,0,14.1-5.2,15.9-11.4l19.8,5.5c-3.9,14.4-14.3,25.5-36.1,25.5C288.8,151.5,272,137.7,272,111.2z
		 M295,102.5h33.6c-0.7-10.6-5.9-15.9-16.1-15.9C302.3,86.5,296.5,91.2,295,102.5L295,102.5z"/>
	<path class="st0" d="M360.8,88.9h-9.2V69.8h9.2v-20h22.9v20h21v19.1h-21v31c0,6.4,2.3,9.4,9.2,9.4c3.5,0,7.5-1.2,10.4-1.9l2.5,21.1
		c-6,1.9-10.1,3-18.8,3c-18.5,0-26.2-12.2-26.2-27.4L360.8,88.9z"/>
	<path class="st0" d="M485.4,151.6c-13.8,0-22.3-7-26.2-23.8h-0.3v44.3h-23V69.8h23v21.5h0.3c3.9-16.8,12.9-23.7,26.7-23.7
		c19.1,0,29,15.6,29,41.4C515,135.9,504.7,151.6,485.4,151.6z M492.3,109.2c0-13.3-5-21-16.6-21c-10.6,0-16.8,7.2-16.8,20.3v1.5
		c0,12.9,6.2,21,16.8,21C487.1,131,492.3,123,492.3,109.2z"/>
	<path class="st0" d="M518,111.2c0-27.5,15.3-43.6,41.1-43.6c24.5,0,36.4,15.6,36.4,37.3c0,3.5,0,6.2-0.3,10.6h-54.4
		c1.5,11.5,7.5,16.5,18.3,16.5c10.6,0,14.1-5.2,15.9-11.4l19.8,5.5c-3.9,14.4-14.3,25.5-36.1,25.5C534.8,151.5,518,137.7,518,111.2z
		 M541,102.5h33.6c-0.7-10.6-5.9-15.9-16.1-15.9C548.4,86.5,542.5,91.2,541,102.5L541,102.5z"/>
	<path class="st0" d="M164.7,69.8v46.7c0,8.2-2.6,14.6-10.2,14.6s-11.6-5.4-11.6-14.6V69.8h-22.8v46.7c0,9.2-3.9,14.6-11.6,14.6
		s-10.2-6.4-10.2-14.6V69.8h-23v50.3c0,19.8,9,31.6,27.4,31.6c17.4,0,25.7-10.8,28.6-30.6h0.3c2.8,19.8,11.2,30.6,28.6,30.6
		c18.4,0,27.5-11.8,27.5-31.6V69.8H164.7z"/>
	<path class="st1" d="M717,0h15c1.8,0,3.2,1.4,3.2,3.2v26c0,1.8-1.4,3.2-3.2,3.2h-15c-9,0-16.2-7.3-16.2-16.2l0,0
		C700.8,7.3,708,0,717,0L717,0z"/>
	<path class="st2" d="M743.4,0h26c1.8,0,3.2,1.4,3.2,3.2v26c0,1.8-1.4,3.2-3.2,3.2h-26c-1.8,0-3.2-1.4-3.2-3.2v-26
		C740.2,1.5,741.6,0,743.4,0z"/>
	<path class="st0" d="M706,37.6h26c1.8,0,3.2,1.4,3.2,3.2v26c0,1.8-1.4,3.2-3.2,3.2h-26c-1.8,0-3.2-1.4-3.2-3.2v-26
		C702.8,39.1,704.2,37.6,706,37.6z"/>
	<path class="st3" d="M743.4,37.6h15c9,0,16.2,7.3,16.2,16.2c0,0,0,0,0,0l0,0c0,9-7.3,16.2-16.2,16.2h-15c-1.8,0-3.2-1.4-3.2-3.2
		v-26C740.2,39.1,741.6,37.6,743.4,37.6C743.4,37.6,743.4,37.6,743.4,37.6z"/>
	<path class="st0" d="M628.6,67.6c13.7-0.2,22.3,6.8,26.2,23.7h0.3V69.7h22.7v79.1h-22.7v-21.4h-0.5c-3.8,16.7-12.8,23.7-26.3,23.7
		c-19.2,0-29-15.7-29-41.4C599.2,83.1,609.5,67.4,628.6,67.6z M655.1,110.3v-1.5c0-12.9-6.3-20.9-16.7-20.9
		c-11.5,0-16.7,8.2-16.7,21.9c0,13,5,20.8,16.7,20.8C648.7,130.6,655.1,123.3,655.1,110.3L655.1,110.3z"/>
</g>
</svg>
